<svg xmlns="http://www.w3.org/2000/svg" viewBox="-0.5 -0.5 16 16" id="Quote-Left-Fill--Streamline-Mingcute-Fill.svg" height="16" width="16"><desc>Quote Left Fill Streamline Icon: https://streamlinehq.com</desc><g fill="none" fill-rule="nonzero"><path d="M15 0v15H0V0h15ZM7.870625 14.536249999999999l-0.006874999999999999 0.00125 -0.044375 0.021875000000000002 -0.0125 0.0025 -0.00875 -0.0025 -0.044375 -0.021875000000000002c-0.00625 -0.0025 -0.011875 -0.000625 -0.015 0.003125l-0.0025 0.00625 -0.010625 0.2675 0.003125 0.0125 0.00625 0.008125 0.065 0.04625 0.009375 0.0025 0.0075 -0.0025 0.065 -0.04625 0.0075 -0.01 0.0025 -0.010625 -0.010625 -0.266875c-0.00125 -0.00625 -0.005625 -0.010625 -0.010625 -0.01125Zm0.16562500000000002 -0.07062500000000001 -0.008125 0.00125 -0.115625 0.058124999999999996 -0.00625 0.00625 -0.001875 0.006874999999999999 0.01125 0.26875 0.003125 0.0075 0.005 0.004375 0.12562500000000001 0.058124999999999996c0.0075 0.0025 0.014374999999999999 0 0.018125000000000002 -0.005l0.0025 -0.00875 -0.02125 -0.38375c-0.001875 -0.0075 -0.00625 -0.0125 -0.0125 -0.013749999999999998Zm-0.44687499999999997 0.00125a0.014374999999999999 0.014374999999999999 0 0 0 -0.016875 0.00375l-0.00375 0.00875 -0.02125 0.38375c0 0.0075 0.004375 0.0125 0.010625 0.015l0.009375 -0.00125 0.12562500000000001 -0.058124999999999996 0.00625 -0.005 0.0025 -0.006874999999999999 0.010625 -0.26875 -0.001875 -0.0075 -0.00625 -0.00625 -0.11499999999999999 -0.057499999999999996Z" stroke-width="1"></path><path fill="#000000" d="M5.25 3.875a0.625 0.625 0 0 1 0.75 1c-0.9775 0.733125 -1.5375 1.44625 -1.8581249999999998 2.06875A2.1875 2.1875 0 1 1 2.5 9.098749999999999a4.728125 4.728125 0 0 1 0.3175 -2.25875C3.1906250000000003 5.898750000000001 3.92 4.8725000000000005 5.25 3.875Zm5.625 0a0.625 0.625 0 0 1 0.75 1c-0.9775 0.733125 -1.5375 1.44625 -1.8581249999999998 2.06875A2.1875 2.1875 0 1 1 8.125 9.098749999999999a4.728125 4.728125 0 0 1 0.3175 -2.25875c0.37374999999999997 -0.94125 1.1025 -1.9675 2.4325 -2.965Z" stroke-width="1"></path></g></svg>