<svg xmlns="http://www.w3.org/2000/svg" class="css-ze2te4 css-qd6ojx" viewBox="0 0 76.563 85.109">
  <path fill="#7f44e8" d="M72.309 18.153 42.534 1.14a8.51 8.51 0 0 0-8.506 0L4.253 18.153A8.51 8.51 0 0 0 0 25.54v34.028a8.51 8.51 0 0 0 4.253 7.387l29.775 17.014a8.51 8.51 0 0 0 8.506 0L72.31 66.955a8.51 8.51 0 0 0 4.253-7.387V25.54a8.51 8.51 0 0 0-4.253-7.387M38.28 8.526l14.008 8.011a43.67 43.67 0 0 1-7.443 20.955 52.46 52.46 0 0 0-28.357-16.489ZM8.507 28.475a43.95 43.95 0 0 1 30.809 15.596 43.8 43.8 0 0 1-30.81 12.661ZM38.28 76.582 17.155 64.516A52.3 52.3 0 0 0 44.18 51.189a43.7 43.7 0 0 1 5.445 18.942Zm29.774-17.014-10.378 5.926a52 52 0 0 0-7.5-20.898A52.2 52.2 0 0 0 60.3 21.102l7.755 4.438Z" class="css-75z1dz"/>
</svg>
