<svg xmlns="http://www.w3.org/2000/svg" viewBox="0 0 396 101.68"><defs><style>.cls-1{fill:#f5333f;}.cls-2{fill:#fff;}</style></defs><g id="Layer_2" data-name="Layer 2"><g id="Layer_1-2" data-name="Layer 1"><path class="cls-1" d="M104.14,49.21l-4.29-2.53a6.3,6.3,0,0,0-5.77,0l-4.29,2.53a5.08,5.08,0,0,0-1.08.88l-9.42-7.31a4.46,4.46,0,0,0,.14-1.09v-24a6.51,6.51,0,0,0-2.88-5.05L56.39.7A5.74,5.74,0,0,0,53.51,0a5.9,5.9,0,0,0-2.88.7L30.47,12.64a6.54,6.54,0,0,0-2.88,5.05v24a4.68,4.68,0,0,0,.15,1.09l-9.43,7.31a4.79,4.79,0,0,0-1.07-.88l-4.3-2.53a5.85,5.85,0,0,0-2.88-.7,5.87,5.87,0,0,0-2.88.7l-4.3,2.53a6.5,6.5,0,0,0-2.88,5V59.4a6.5,6.5,0,0,0,2.88,5L7.18,67a5.77,5.77,0,0,0,2.88.7,5.74,5.74,0,0,0,2.88-.7l4.3-2.53a6.5,6.5,0,0,0,2.88-5V54.25a4.89,4.89,0,0,0-.17-1.2l9.38-7.27a4.85,4.85,0,0,0,1.14,1L50.63,58.67a4.88,4.88,0,0,0,1.24.5V76.11a4.52,4.52,0,0,0-1.23.49l-6,3.53a6.53,6.53,0,0,0-2.87,5.05v7.21a6.53,6.53,0,0,0,2.87,5l6,3.53a6.18,6.18,0,0,0,5.75,0l6-3.53a6.51,6.51,0,0,0,2.88-5V85.18a6.51,6.51,0,0,0-2.88-5.05l-6-3.53a5,5,0,0,0-1.18-.48v-17a4.48,4.48,0,0,0,1.18-.47L76.56,46.74a5,5,0,0,0,1.14-1l9.38,7.27a4.4,4.4,0,0,0-.17,1.2V59.4a6.47,6.47,0,0,0,2.88,5L94.08,67a6.3,6.3,0,0,0,5.77,0l4.3-2.53a6.5,6.5,0,0,0,2.88-5V54.25a6.5,6.5,0,0,0-2.88-5M16.78,59.4a3.26,3.26,0,0,1-1.24,2.16l-4.29,2.53a2.55,2.55,0,0,1-1.19.24,2.62,2.62,0,0,1-1.19-.24L4.58,61.56A3.25,3.25,0,0,1,3.35,59.4V54.25a3.27,3.27,0,0,1,1.23-2.16l4.3-2.52a2.5,2.5,0,0,1,1.18-.24,2.55,2.55,0,0,1,1.19.24l4.29,2.52a3.29,3.29,0,0,1,1.24,2.16ZM60.64,83a3.31,3.31,0,0,1,1.24,2.17v7.21a3.33,3.33,0,0,1-1.24,2.17l-6,3.54a2.62,2.62,0,0,1-1.17.23,2.56,2.56,0,0,1-1.16-.23l-6-3.54a3.28,3.28,0,0,1-1.24-2.17V85.18A3.31,3.31,0,0,1,46.39,83l6-3.53a2.08,2.08,0,0,1,.36-.14h1.63a1.64,1.64,0,0,1,.35.14ZM76.09,41.69a3.31,3.31,0,0,1-1.24,2.17l-6.42,3.8a14.86,14.86,0,0,0-5-9.38,14,14,0,0,1-2.59,2.21,11.53,11.53,0,0,1,4.34,9.07L54.69,55.8a3.12,3.12,0,0,1-2.35,0L41.81,49.56a11.54,11.54,0,0,1,4.34-9.07,13.29,13.29,0,0,1-2.58-2.21,14.83,14.83,0,0,0-5,9.38l-6.42-3.8a3.31,3.31,0,0,1-1.24-2.17v-24a3.28,3.28,0,0,1,1.24-2.17L52.34,3.58a3.12,3.12,0,0,1,2.35,0L74.85,15.52a3.28,3.28,0,0,1,1.24,2.17ZM103.68,59.4a3.29,3.29,0,0,1-1.23,2.16l-4.3,2.53a3.17,3.17,0,0,1-2.37,0l-4.3-2.53a3.29,3.29,0,0,1-1.23-2.16V54.25a3.31,3.31,0,0,1,1.23-2.16l4.3-2.52a3,3,0,0,1,2.37,0l4.3,2.52a3.31,3.31,0,0,1,1.23,2.16Z"/><path class="cls-1" d="M53.51,21.19A8.36,8.36,0,1,0,62,29.54a8.43,8.43,0,0,0-8.52-8.35m0,13.36a5,5,0,1,1,5.17-5,5.1,5.1,0,0,1-5.17,5"/><path class="cls-2" d="M129.22,52.27a.82.82,0,0,1-.79-.86V11.83a.82.82,0,0,1,.79-.86h16.2c5,0,9,1.25,11.76,3.83,4.1,3.7,5.49,10.71,3.5,15.86a11.6,11.6,0,0,1-3.56,4.83c-5.36,4.16-12,3.76-18.44,3.76V51.41a.87.87,0,0,1-.86.86Zm9.46-22.2s8.32.92,11.23-1a4.94,4.94,0,0,0,1.79-3.84,5.41,5.41,0,0,0-2-3.9c-1.25-1.05-4.36-1.38-5.94-1.38l-5.09.13Zm23.19,22.2a.74.74,0,0,1-.66-.39.84.84,0,0,1-.13-.8l15.4-39.59a.85.85,0,0,1,.79-.52h8.86a.85.85,0,0,1,.79.53l15.14,39.58a.91.91,0,0,1-.14.8.72.72,0,0,1-.66.39h-9.18a.86.86,0,0,1-.8-.53l-2.44-6.07L174,45.73l-2.45,6a.85.85,0,0,1-.79.53ZM176.68,37.4h9.51l-4.75-14Zm32.25,14.87a.83.83,0,0,1-.86-.86V11.83a.83.83,0,0,1,.86-.86h16.13c5,0,9,1.25,11.76,3.83,4.1,3.7,5.49,10.71,3.5,15.86a11.71,11.71,0,0,1-3.57,4.83,19.47,19.47,0,0,1-2.9,1.78c2.84,4.5,7.13,13.62,7.13,13.62a1.21,1.21,0,0,1,.2.52.87.87,0,0,1-.86.86h-9.78a.9.9,0,0,1-.73-.46l-5.74-12.62c-2,.13-3.64.06-5.76.06V51.41a.86.86,0,0,1-.85.86Zm9.38-22.2s8.33.92,11.24-1a5,5,0,0,0,1.78-3.84,5.36,5.36,0,0,0-2-3.9C228.1,20.29,225,20,223.4,20l-5.09.13Zm40.25,22.2a.82.82,0,0,1-.79-.86V20.22h-9a.82.82,0,0,1-.86-.79v-7.6a.87.87,0,0,1,.86-.86h28.35a.83.83,0,0,1,.86.86v7.6a.78.78,0,0,1-.86.79H268V51.41a.86.86,0,0,1-.85.86Zm26.84,0a.88.88,0,0,1-.86-.86V11.83a.87.87,0,0,1,.86-.86h7.8a1,1,0,0,1,.72.33l15.2,23.46V11.83A.87.87,0,0,1,310,11h8.13a.87.87,0,0,1,.86.86V51.42a.87.87,0,0,1-.86.85h-7.8a1,1,0,0,1-.72-.33L294.45,28.61v22.8a.87.87,0,0,1-.86.86Zm40.18,0V12.68c0-1.65.33-2,.86-2h28.95a.82.82,0,0,1,.86.79V19a.87.87,0,0,1-.86.86H335.82V26.7h12.36a.87.87,0,0,1,.86.86V35a.87.87,0,0,1-.86.86H335.82v7.07h19.5a.87.87,0,0,1,.86.86v7.4a.88.88,0,0,1-.86.86H326.44c-.53,0-.86-.4-.86.26m38.13,0a.84.84,0,0,1-.86-.86V11.83a.84.84,0,0,1,.86-.86h16.13c5,0,9,1.25,11.76,3.83,4.1,3.7,5.49,10.71,3.51,15.86a11.71,11.71,0,0,1-3.57,4.83,20.09,20.09,0,0,1-2.91,1.78c2.84,4.5,7.14,13.62,7.14,13.62a1.34,1.34,0,0,1,.19.52.86.86,0,0,1-.85.86h-9.79a.87.87,0,0,1-.72-.46l-5.75-12.62c-2.05.13-3.64.06-5.75.06V51.41a.87.87,0,0,1-.86.86Zm9.39-22.2s8.33.92,11.23-1a4.94,4.94,0,0,0,1.79-3.84,5.4,5.4,0,0,0-2-3.9c-1.26-1.05-4.37-1.38-5.95-1.38l-5.09.13Z"/><path class="cls-1" d="M128.74,90.44a.33.33,0,0,1-.31-.34V74.53a.32.32,0,0,1,.31-.34h6.37a6.54,6.54,0,0,1,4.63,1.51,6,6,0,0,1,1.38,6.24,4.6,4.6,0,0,1-1.4,1.89c-2.11,1.64-4.74,1.49-7.26,1.49V90.1a.34.34,0,0,1-.34.34Zm3.72-8.74s3.28.37,4.42-.39a2,2,0,0,0,.7-1.51,2.09,2.09,0,0,0-.78-1.53,4.45,4.45,0,0,0-2.34-.55l-2,.06Zm33.77,8.74a6.89,6.89,0,0,1-3.49-.86,5.94,5.94,0,0,1-2.44-2.45,7.59,7.59,0,0,1-.86-3.71V74.27a.33.33,0,0,1,.34-.32h3.38a.31.31,0,0,1,.31.29v9.18a3.41,3.41,0,0,0,.83,2.42,2.39,2.39,0,0,0,1.95.85,2.29,2.29,0,0,0,1.9-.83,3.52,3.52,0,0,0,.78-2.44V74.27a.33.33,0,0,1,.34-.32h3.38a.33.33,0,0,1,.34.32v9.15a7.66,7.66,0,0,1-.86,3.72,5.81,5.81,0,0,1-2.42,2.44,6.8,6.8,0,0,1-3.48.86m25,0a.34.34,0,0,1-.34-.34V74.53a.34.34,0,0,1,.34-.34h3.38a.34.34,0,0,1,.33.34V86.69h5.85a.34.34,0,0,1,.34.34V90.1a.34.34,0,0,1-.34.34Zm34.77.15A10.71,10.71,0,0,1,219.19,88a.35.35,0,0,1-.07-.39l.91-3.09a.27.27,0,0,1,.23-.19.34.34,0,0,1,.29.08A8,8,0,0,0,225.44,87,4.64,4.64,0,0,0,227,86.9c1.54-.49.89-2.05-.26-2.52-.39-.16-.93-.34-1.64-.55a14.24,14.24,0,0,1-2.54-.91,4.77,4.77,0,0,1-1.82-1.45,4.34,4.34,0,0,1-.76-2.63,4.55,4.55,0,0,1,.78-2.65,4,4,0,0,1,2.16-1.74,8,8,0,0,1,3.17-.6,10.31,10.31,0,0,1,3.15.49A11.44,11.44,0,0,1,232,75.62a.32.32,0,0,1,.1.41L231.23,79a.25.25,0,0,1-.2.18.29.29,0,0,1-.26,0,9.79,9.79,0,0,0-3.72-1.79c-.91-.13-2.29-.08-2.6,1-.39,1.41,1.66,1.77,2.6,2.06a19.62,19.62,0,0,1,2.57.93,5,5,0,0,1,1.82,1.51,4.33,4.33,0,0,1,.78,2.68,4.64,4.64,0,0,1-.83,2.75A5,5,0,0,1,229.18,90a8.45,8.45,0,0,1-3.15.57m24.12-.15V74.86c0-.65.13-.78.34-.78h11.39a.33.33,0,0,1,.34.31v2.94a.34.34,0,0,1-.34.34h-7.7v2.71H259a.34.34,0,0,1,.34.33v2.91A.34.34,0,0,1,259,84h-4.86v2.79h7.67a.34.34,0,0,1,.34.33V90a.34.34,0,0,1-.34.34H250.49c-.21,0-.34-.15-.34.11"/></g></g></svg>