<svg xmlns="http://www.w3.org/2000/svg" width="396" height="110.121" viewBox="0 0 370.353 102.989">
  <defs>
    <linearGradient id="gradient" x1="0%" y1="0%" x2="100%" y2="100%">
      <stop offset="0%" style="stop-color:#fff;stop-opacity:1" />
      <stop offset="100%" style="stop-color:#fff;stop-opacity:1" />
    </linearGradient>
  </defs>
  <path fill="url(#gradient)" d="M87.501 21.967 51.471 1.38a10.3 10.3 0 0 0-10.294 0L5.147 21.967a10.3 10.3 0 0 0-5.146 8.94v41.176a10.3 10.3 0 0 0 5.147 8.939l36.03 20.588a10.3 10.3 0 0 0 10.294 0l36.03-20.588a10.3 10.3 0 0 0 5.146-8.94V30.907a10.3 10.3 0 0 0-5.147-8.939m-41.177-11.65 16.952 9.695a52.84 52.84 0 0 1-9.008 25.357 63.48 63.48 0 0 0-34.314-19.953Zm-36.029 24.14A53.19 53.19 0 0 1 47.577 53.33a53.02 53.02 0 0 1-37.282 15.321Zm36.03 58.214-25.564-14.6a63.3 63.3 0 0 0 32.7-16.128 52.84 52.84 0 0 1 6.589 22.922Zm36.029-20.588-12.559 7.171a63 63 0 0 0-9.076-25.289 63.14 63.14 0 0 0 12.25-28.429l9.385 5.37Z" />
  <path fill="#fff" d="M113.763 53.984c-.445 0-.763-.381-.763-.826V15.08c0-.445.318-.827.763-.827h15.574c4.831 0 8.645 1.208 11.315 3.687 3.941 3.56 5.276 10.298 3.369 15.256a11.24 11.24 0 0 1-3.433 4.64c-5.149 4.006-11.569 3.624-17.735 3.624v11.697a.84.84 0 0 1-.826.826zm9.09-21.359s8.01.89 10.806-.953c1.081-.7 1.717-2.416 1.717-3.687-.064-1.399-.763-2.86-1.907-3.75-1.208-1.018-4.196-1.336-5.721-1.336l-4.895.128zm22.312 21.359a.7.7 0 0 1-.636-.381c-.19-.191-.19-.509-.127-.763l14.812-38.077a.83.83 0 0 1 .762-.509h8.518c.318 0 .636.191.763.509l14.557 38.077c.064.254.064.508-.127.763a.7.7 0 0 1-.636.38h-8.836a.83.83 0 0 1-.762-.508l-2.352-5.848-14.303.064-2.352 5.784a.83.83 0 0 1-.763.509zm14.24-14.303h9.153l-4.577-13.476zm31.02 14.303c-.508 0-.826-.381-.826-.826V15.08c0-.445.318-.827.826-.827h15.51c4.832 0 8.646 1.208 11.316 3.687 3.94 3.56 5.276 10.298 3.369 15.256a11.24 11.24 0 0 1-3.433 4.64c-.89.7-1.843 1.209-2.797 1.717 2.734 4.323 6.865 13.095 6.865 13.095.064.127.191.318.191.509a.84.84 0 0 1-.826.826h-9.408c-.255 0-.572-.19-.7-.445l-5.53-12.141c-1.97.127-3.496.063-5.53.063v11.697a.84.84 0 0 1-.827.826zm9.027-21.359s8.01.89 10.806-.953c1.08-.7 1.717-2.416 1.717-3.687-.064-1.399-.763-2.86-1.907-3.75-1.208-1.018-4.196-1.336-5.722-1.336l-4.894.128zm38.712 21.359c-.445 0-.762-.381-.762-.826V23.154h-8.71c-.444 0-.826-.318-.826-.763v-7.31c0-.445.382-.827.827-.827h27.27c.509 0 .827.382.827.827v7.31c0 .445-.318.763-.827.763h-8.709v30.004a.84.84 0 0 1-.826.826zm25.809 0a.84.84 0 0 1-.827-.826V15.08c0-.445.382-.827.827-.827h7.5c.255 0 .51.127.7.318l14.62 22.567V15.08c0-.445.382-.827.827-.827h7.819c.445 0 .826.382.826.827v38.077a.84.84 0 0 1-.826.826h-7.501c-.255 0-.509-.127-.7-.318l-14.557-22.44v21.932a.84.84 0 0 1-.826.826zm38.649 0V15.907c0-1.59.318-1.907.826-1.907h27.843c.445 0 .826.318.826.763v7.183a.84.84 0 0 1-.826.826h-18.816v6.611h11.887c.445 0 .826.382.826.827v7.12a.84.84 0 0 1-.826.826h-11.887v6.801h18.752c.445 0 .826.382.826.827v7.12a.84.84 0 0 1-.826.826h-27.779c-.508 0-.826-.382-.826.254m36.678 0c-.508 0-.826-.381-.826-.826V15.08c0-.445.318-.827.826-.827h15.51c4.832 0 8.646 1.208 11.316 3.687 3.94 3.56 5.276 10.298 3.369 15.256a11.24 11.24 0 0 1-3.433 4.64c-.89.7-1.843 1.209-2.797 1.717C366 43.877 370.13 52.65 370.13 52.65c.064.127.191.318.191.509a.84.84 0 0 1-.826.826h-9.408c-.255 0-.572-.19-.7-.445l-5.53-12.141c-1.97.127-3.496.063-5.53.063v11.697a.84.84 0 0 1-.827.826zm9.027-21.359s8.01.89 10.806-.953c1.08-.7 1.717-2.416 1.717-3.687-.064-1.399-.763-2.86-1.907-3.75-1.208-1.018-4.196-1.336-5.722-1.336l-4.894.128z" />
  <path fill="url(#gradient)" d="M113.3 89.955c-.175 0-.3-.15-.3-.325V74.65c0-.175.125-.325.3-.325h6.127c1.9 0 3.401.475 4.452 1.45 1.55 1.401 2.075 4.052 1.325 6.003-.275.7-.75 1.35-1.35 1.825-2.026 1.576-4.552 1.426-6.978 1.426v4.601a.33.33 0 0 1-.325.325zm3.576-8.403s3.151.35 4.252-.375c.425-.275.675-.95.675-1.45a2.03 2.03 0 0 0-.75-1.476c-.476-.4-1.65-.525-2.251-.525l-1.926.05zm32.476 8.403c-1.35 0-2.326-.275-3.351-.825-1-.55-1.8-1.326-2.351-2.35-.55-1.001-.825-2.202-.825-3.577V74.4c0-.175.15-.3.325-.3h3.25c.176 0 .3.125.3.3v8.803c0 1 .276 1.776.801 2.326s1 .825 1.876.825 1.325-.275 1.825-.8c.5-.55.75-1.35.75-2.351V74.4c0-.175.15-.3.326-.3h3.25c.176 0 .326.125.326.3v8.803c0 1.375-.275 2.576-.825 3.576-.526 1.025-1.326 1.8-2.326 2.35s-2 .826-3.351.826m24.072 0a.33.33 0 0 1-.325-.325V74.65a.33.33 0 0 1 .325-.325h3.252a.33.33 0 0 1 .325.325v11.704h5.626c.175 0 .326.15.326.325v2.951c0 .175-.15.325-.326.325zm33.451.15c-1.2 0-2.4-.225-3.55-.675a9.6 9.6 0 0 1-3.027-1.8.35.35 0 0 1-.075-.376l.875-2.976c.05-.1.125-.175.225-.175.1-.025.2 0 .276.075 1.325 1.25 2.825 2.376 4.701 2.476.5.025 1.05.05 1.526-.1 1.475-.475.85-1.976-.25-2.426q-.563-.225-1.576-.525c-1-.275-1.826-.575-2.45-.875-.676-.3-1.251-.775-1.751-1.4-.476-.65-.726-1.501-.726-2.526q0-1.464.75-2.551c.75-1.087 1.201-1.3 2.076-1.676S205.8 74 206.95 74a9.7 9.7 0 0 1 3.026.475c.976.3 1.85.725 2.626 1.226.125.1.175.25.1.4l-.825 2.8c-.025.1-.1.15-.2.176a.3.3 0 0 1-.25-.025c-1.126-.7-2.251-1.55-3.576-1.726-.876-.125-2.201-.075-2.501.975-.375 1.35 1.6 1.7 2.5 1.976q1.5.45 2.476.9a4.9 4.9 0 0 1 1.75 1.45c.501.651.751 1.526.751 2.577 0 1.025-.275 1.9-.8 2.65-.5.75-1.225 1.3-2.126 1.701-.9.35-1.9.55-3.026.55m23.198-.15v-14.98c0-.625.125-.75.325-.75h10.953c.175 0 .325.125.325.3v2.826a.33.33 0 0 1-.325.325h-7.402v2.601h4.676c.176 0 .326.15.326.325v2.801c0 .175-.15.325-.326.325h-4.676v2.676h7.377a.33.33 0 0 1 .325.325v2.801a.33.33 0 0 1-.325.325h-10.928c-.2 0-.325-.15-.325.1" />
</svg>